<mxfile host="app.diagrams.net" modified="2022-08-03T09:42:09.404Z" agent="5.0 (X11)" version="20.2.2" etag="YObX_AikXWfU0JeXrLZq" type="github">
  <diagram id="a7SjaSfjKRhJdXmIEEfU" name="Page-1">
    <mxGraphModel dx="995" dy="601" grid="1" gridSize="10" guides="1" tooltips="1" connect="1" arrows="1" fold="1" page="1" pageScale="1" pageWidth="827" pageHeight="1169" math="0" shadow="0">
      <root>
        <mxCell id="0" />
        <mxCell id="1" parent="0" />
        <mxCell id="2" value="User" style="swimlane;fontStyle=0;align=center;verticalAlign=top;childLayout=stackLayout;horizontal=1;startSize=26;horizontalStack=0;resizeParent=1;resizeLast=0;collapsible=1;marginBottom=0;rounded=0;shadow=0;strokeWidth=1;" parent="1" vertex="1">
          <mxGeometry x="60" y="50" width="260" height="300" as="geometry">
            <mxRectangle x="340" y="380" width="170" height="26" as="alternateBounds" />
          </mxGeometry>
        </mxCell>
        <mxCell id="3" value="id                               int  [increment]" style="text;align=left;verticalAlign=top;spacingLeft=4;spacingRight=4;overflow=hidden;rotatable=0;points=[[0,0.5],[1,0.5]];portConstraint=eastwest;" parent="2" vertex="1">
          <mxGeometry y="26" width="260" height="26" as="geometry" />
        </mxCell>
        <mxCell id="4" value="email                         varchar  [unique]" style="text;align=left;verticalAlign=top;spacingLeft=4;spacingRight=4;overflow=hidden;rotatable=0;points=[[0,0.5],[1,0.5]];portConstraint=eastwest;" parent="2" vertex="1">
          <mxGeometry y="52" width="260" height="26" as="geometry" />
        </mxCell>
        <mxCell id="6" value="password                  varchar" style="text;align=left;verticalAlign=top;spacingLeft=4;spacingRight=4;overflow=hidden;rotatable=0;points=[[0,0.5],[1,0.5]];portConstraint=eastwest;" parent="2" vertex="1">
          <mxGeometry y="78" width="260" height="26" as="geometry" />
        </mxCell>
        <mxCell id="9" value="name                  varchar" style="text;align=left;verticalAlign=top;spacingLeft=4;spacingRight=4;overflow=hidden;rotatable=0;points=[[0,0.5],[1,0.5]];portConstraint=eastwest;" parent="2" vertex="1">
          <mxGeometry y="104" width="260" height="26" as="geometry" />
        </mxCell>
        <mxCell id="10" value="reset_token              varchar" style="text;align=left;verticalAlign=top;spacingLeft=4;spacingRight=4;overflow=hidden;rotatable=0;points=[[0,0.5],[1,0.5]];portConstraint=eastwest;" parent="2" vertex="1">
          <mxGeometry y="130" width="260" height="26" as="geometry" />
        </mxCell>
        <mxCell id="11" value="address                    varchar" style="text;align=left;verticalAlign=top;spacingLeft=4;spacingRight=4;overflow=hidden;rotatable=0;points=[[0,0.5],[1,0.5]];portConstraint=eastwest;" parent="2" vertex="1">
          <mxGeometry y="156" width="260" height="26" as="geometry" />
        </mxCell>
        <mxCell id="12" value="zipcode                    varchar" style="text;align=left;verticalAlign=top;spacingLeft=4;spacingRight=4;overflow=hidden;rotatable=0;points=[[0,0.5],[1,0.5]];portConstraint=eastwest;" parent="2" vertex="1">
          <mxGeometry y="182" width="260" height="26" as="geometry" />
        </mxCell>
        <mxCell id="13" value="city                           varchar" style="text;align=left;verticalAlign=top;spacingLeft=4;spacingRight=4;overflow=hidden;rotatable=0;points=[[0,0.5],[1,0.5]];portConstraint=eastwest;" parent="2" vertex="1">
          <mxGeometry y="208" width="260" height="26" as="geometry" />
        </mxCell>
        <mxCell id="14" value="roles                        json" style="text;align=left;verticalAlign=top;spacingLeft=4;spacingRight=4;overflow=hidden;rotatable=0;points=[[0,0.5],[1,0.5]];portConstraint=eastwest;" parent="2" vertex="1">
          <mxGeometry y="234" width="260" height="26" as="geometry" />
        </mxCell>
        <mxCell id="15" value="created_at               datetime" style="text;align=left;verticalAlign=top;spacingLeft=4;spacingRight=4;overflow=hidden;rotatable=0;points=[[0,0.5],[1,0.5]];portConstraint=eastwest;" parent="2" vertex="1">
          <mxGeometry y="260" width="260" height="26" as="geometry" />
        </mxCell>
        <mxCell id="hPcDsvAZvbD1BHrRrWnX-15" value="Maincustomer" style="swimlane;" vertex="1" parent="1">
          <mxGeometry x="440" y="50" width="260" height="200" as="geometry" />
        </mxCell>
        <mxCell id="hPcDsvAZvbD1BHrRrWnX-16" value="id                               int  [increment]" style="text;align=left;verticalAlign=top;spacingLeft=4;spacingRight=4;overflow=hidden;rotatable=0;points=[[0,0.5],[1,0.5]];portConstraint=eastwest;" vertex="1" parent="hPcDsvAZvbD1BHrRrWnX-15">
          <mxGeometry y="26" width="240" height="26" as="geometry" />
        </mxCell>
        <mxCell id="hPcDsvAZvbD1BHrRrWnX-44" value="contact                  varchar" style="text;align=left;verticalAlign=top;spacingLeft=4;spacingRight=4;overflow=hidden;rotatable=0;points=[[0,0.5],[1,0.5]];portConstraint=eastwest;" vertex="1" parent="hPcDsvAZvbD1BHrRrWnX-15">
          <mxGeometry y="52" width="260" height="26" as="geometry" />
        </mxCell>
        <mxCell id="hPcDsvAZvbD1BHrRrWnX-70" style="edgeStyle=orthogonalEdgeStyle;rounded=0;orthogonalLoop=1;jettySize=auto;html=1;exitX=0.5;exitY=1;exitDx=0;exitDy=0;entryX=0.75;entryY=0;entryDx=0;entryDy=0;fontSize=48;" edge="1" parent="1" source="hPcDsvAZvbD1BHrRrWnX-17" target="hPcDsvAZvbD1BHrRrWnX-35">
          <mxGeometry relative="1" as="geometry" />
        </mxCell>
        <mxCell id="hPcDsvAZvbD1BHrRrWnX-17" value="Partner" style="swimlane;" vertex="1" parent="1">
          <mxGeometry x="370" y="560" width="260" height="200" as="geometry" />
        </mxCell>
        <mxCell id="hPcDsvAZvbD1BHrRrWnX-18" value="id                               int  [increment]" style="text;align=left;verticalAlign=top;spacingLeft=4;spacingRight=4;overflow=hidden;rotatable=0;points=[[0,0.5],[1,0.5]];portConstraint=eastwest;" vertex="1" parent="hPcDsvAZvbD1BHrRrWnX-17">
          <mxGeometry y="26" width="240" height="26" as="geometry" />
        </mxCell>
        <mxCell id="hPcDsvAZvbD1BHrRrWnX-29" value="contract                  varchar" style="text;align=left;verticalAlign=top;spacingLeft=4;spacingRight=4;overflow=hidden;rotatable=0;points=[[0,0.5],[1,0.5]];portConstraint=eastwest;" vertex="1" parent="hPcDsvAZvbD1BHrRrWnX-17">
          <mxGeometry y="78" width="260" height="26" as="geometry" />
        </mxCell>
        <mxCell id="hPcDsvAZvbD1BHrRrWnX-30" value="is_enable                boolean" style="text;align=left;verticalAlign=top;spacingLeft=4;spacingRight=4;overflow=hidden;rotatable=0;points=[[0,0.5],[1,0.5]];portConstraint=eastwest;" vertex="1" parent="hPcDsvAZvbD1BHrRrWnX-17">
          <mxGeometry y="104" width="260" height="26" as="geometry" />
        </mxCell>
        <mxCell id="hPcDsvAZvbD1BHrRrWnX-32" value="contact                  varchar" style="text;align=left;verticalAlign=top;spacingLeft=4;spacingRight=4;overflow=hidden;rotatable=0;points=[[0,0.5],[1,0.5]];portConstraint=eastwest;" vertex="1" parent="hPcDsvAZvbD1BHrRrWnX-17">
          <mxGeometry y="52" width="260" height="26" as="geometry" />
        </mxCell>
        <mxCell id="hPcDsvAZvbD1BHrRrWnX-74" value="mail_id                  int" style="text;align=left;verticalAlign=top;spacingLeft=4;spacingRight=4;overflow=hidden;rotatable=0;points=[[0,0.5],[1,0.5]];portConstraint=eastwest;" vertex="1" parent="hPcDsvAZvbD1BHrRrWnX-17">
          <mxGeometry y="130" width="190" height="26" as="geometry" />
        </mxCell>
        <mxCell id="hPcDsvAZvbD1BHrRrWnX-22" value="Permission" style="swimlane;" vertex="1" parent="1">
          <mxGeometry x="510" y="300" width="210" height="200" as="geometry" />
        </mxCell>
        <mxCell id="hPcDsvAZvbD1BHrRrWnX-23" value="id                               int  [increment]" style="text;align=left;verticalAlign=top;spacingLeft=4;spacingRight=4;overflow=hidden;rotatable=0;points=[[0,0.5],[1,0.5]];portConstraint=eastwest;" vertex="1" parent="hPcDsvAZvbD1BHrRrWnX-22">
          <mxGeometry y="26" width="240" height="26" as="geometry" />
        </mxCell>
        <mxCell id="hPcDsvAZvbD1BHrRrWnX-33" value="name                  varchar" style="text;align=left;verticalAlign=top;spacingLeft=4;spacingRight=4;overflow=hidden;rotatable=0;points=[[0,0.5],[1,0.5]];portConstraint=eastwest;" vertex="1" parent="hPcDsvAZvbD1BHrRrWnX-22">
          <mxGeometry y="52" width="260" height="26" as="geometry" />
        </mxCell>
        <mxCell id="hPcDsvAZvbD1BHrRrWnX-34" value="is_enable                boolean" style="text;align=left;verticalAlign=top;spacingLeft=4;spacingRight=4;overflow=hidden;rotatable=0;points=[[0,0.5],[1,0.5]];portConstraint=eastwest;" vertex="1" parent="hPcDsvAZvbD1BHrRrWnX-22">
          <mxGeometry y="78" width="260" height="26" as="geometry" />
        </mxCell>
        <mxCell id="hPcDsvAZvbD1BHrRrWnX-65" style="edgeStyle=orthogonalEdgeStyle;rounded=0;orthogonalLoop=1;jettySize=auto;html=1;exitX=0.5;exitY=1;exitDx=0;exitDy=0;fontSize=48;" edge="1" parent="1" source="hPcDsvAZvbD1BHrRrWnX-25" target="hPcDsvAZvbD1BHrRrWnX-35">
          <mxGeometry relative="1" as="geometry" />
        </mxCell>
        <mxCell id="hPcDsvAZvbD1BHrRrWnX-25" value="Sporthall" style="swimlane;" vertex="1" parent="1">
          <mxGeometry x="50" y="570" width="260" height="200" as="geometry" />
        </mxCell>
        <mxCell id="hPcDsvAZvbD1BHrRrWnX-26" value="id                               int  [increment]" style="text;align=left;verticalAlign=top;spacingLeft=4;spacingRight=4;overflow=hidden;rotatable=0;points=[[0,0.5],[1,0.5]];portConstraint=eastwest;" vertex="1" parent="hPcDsvAZvbD1BHrRrWnX-25">
          <mxGeometry y="26" width="240" height="26" as="geometry" />
        </mxCell>
        <mxCell id="hPcDsvAZvbD1BHrRrWnX-31" value="is_enable                boolean" style="text;align=left;verticalAlign=top;spacingLeft=4;spacingRight=4;overflow=hidden;rotatable=0;points=[[0,0.5],[1,0.5]];portConstraint=eastwest;" vertex="1" parent="hPcDsvAZvbD1BHrRrWnX-25">
          <mxGeometry y="52" width="260" height="26" as="geometry" />
        </mxCell>
        <mxCell id="hPcDsvAZvbD1BHrRrWnX-68" value="mail_id                  int" style="text;align=left;verticalAlign=top;spacingLeft=4;spacingRight=4;overflow=hidden;rotatable=0;points=[[0,0.5],[1,0.5]];portConstraint=eastwest;" vertex="1" parent="hPcDsvAZvbD1BHrRrWnX-25">
          <mxGeometry y="78" width="190" height="26" as="geometry" />
        </mxCell>
        <mxCell id="hPcDsvAZvbD1BHrRrWnX-61" style="edgeStyle=orthogonalEdgeStyle;rounded=0;orthogonalLoop=1;jettySize=auto;html=1;exitX=1;exitY=0.75;exitDx=0;exitDy=0;entryX=0;entryY=0.75;entryDx=0;entryDy=0;fontSize=36;" edge="1" parent="1" source="hPcDsvAZvbD1BHrRrWnX-35" target="hPcDsvAZvbD1BHrRrWnX-40">
          <mxGeometry relative="1" as="geometry" />
        </mxCell>
        <mxCell id="hPcDsvAZvbD1BHrRrWnX-35" value="Mailing" style="swimlane;" vertex="1" parent="1">
          <mxGeometry x="60" y="860" width="200" height="200" as="geometry" />
        </mxCell>
        <mxCell id="hPcDsvAZvbD1BHrRrWnX-36" value="id                               int  [increment]" style="text;align=left;verticalAlign=top;spacingLeft=4;spacingRight=4;overflow=hidden;rotatable=0;points=[[0,0.5],[1,0.5]];portConstraint=eastwest;" vertex="1" parent="hPcDsvAZvbD1BHrRrWnX-35">
          <mxGeometry y="26" width="240" height="26" as="geometry" />
        </mxCell>
        <mxCell id="hPcDsvAZvbD1BHrRrWnX-37" value="title                  varchar" style="text;align=left;verticalAlign=top;spacingLeft=4;spacingRight=4;overflow=hidden;rotatable=0;points=[[0,0.5],[1,0.5]];portConstraint=eastwest;" vertex="1" parent="hPcDsvAZvbD1BHrRrWnX-35">
          <mxGeometry y="52" width="260" height="26" as="geometry" />
        </mxCell>
        <mxCell id="hPcDsvAZvbD1BHrRrWnX-39" value="content                  varchar" style="text;align=left;verticalAlign=top;spacingLeft=4;spacingRight=4;overflow=hidden;rotatable=0;points=[[0,0.5],[1,0.5]];portConstraint=eastwest;" vertex="1" parent="hPcDsvAZvbD1BHrRrWnX-35">
          <mxGeometry y="78" width="200" height="26" as="geometry" />
        </mxCell>
        <mxCell id="hPcDsvAZvbD1BHrRrWnX-69" value="sporthall_id                  int" style="text;align=left;verticalAlign=top;spacingLeft=4;spacingRight=4;overflow=hidden;rotatable=0;points=[[0,0.5],[1,0.5]];portConstraint=eastwest;" vertex="1" parent="hPcDsvAZvbD1BHrRrWnX-35">
          <mxGeometry y="104" width="190" height="26" as="geometry" />
        </mxCell>
        <mxCell id="hPcDsvAZvbD1BHrRrWnX-73" value="partner_id                  int" style="text;align=left;verticalAlign=top;spacingLeft=4;spacingRight=4;overflow=hidden;rotatable=0;points=[[0,0.5],[1,0.5]];portConstraint=eastwest;" vertex="1" parent="hPcDsvAZvbD1BHrRrWnX-35">
          <mxGeometry y="130" width="190" height="26" as="geometry" />
        </mxCell>
        <mxCell id="hPcDsvAZvbD1BHrRrWnX-40" value="Category" style="swimlane;" vertex="1" parent="1">
          <mxGeometry x="350" y="860" width="196" height="200" as="geometry" />
        </mxCell>
        <mxCell id="hPcDsvAZvbD1BHrRrWnX-41" value="id                          int  [increment]" style="text;align=left;verticalAlign=top;spacingLeft=4;spacingRight=4;overflow=hidden;rotatable=0;points=[[0,0.5],[1,0.5]];portConstraint=eastwest;" vertex="1" parent="hPcDsvAZvbD1BHrRrWnX-40">
          <mxGeometry y="26" width="240" height="26" as="geometry" />
        </mxCell>
        <mxCell id="hPcDsvAZvbD1BHrRrWnX-42" value="name                  varchar" style="text;align=left;verticalAlign=top;spacingLeft=4;spacingRight=4;overflow=hidden;rotatable=0;points=[[0,0.5],[1,0.5]];portConstraint=eastwest;" vertex="1" parent="hPcDsvAZvbD1BHrRrWnX-40">
          <mxGeometry y="52" width="260" height="26" as="geometry" />
        </mxCell>
        <mxCell id="hPcDsvAZvbD1BHrRrWnX-62" value="mail_id                  int" style="text;align=left;verticalAlign=top;spacingLeft=4;spacingRight=4;overflow=hidden;rotatable=0;points=[[0,0.5],[1,0.5]];portConstraint=eastwest;" vertex="1" parent="hPcDsvAZvbD1BHrRrWnX-40">
          <mxGeometry y="87" width="190" height="26" as="geometry" />
        </mxCell>
        <mxCell id="hPcDsvAZvbD1BHrRrWnX-47" style="edgeStyle=orthogonalEdgeStyle;rounded=0;orthogonalLoop=1;jettySize=auto;html=1;exitX=1;exitY=0.5;exitDx=0;exitDy=0;" edge="1" parent="1" source="9">
          <mxGeometry relative="1" as="geometry">
            <mxPoint x="440" y="167.28571428571433" as="targetPoint" />
          </mxGeometry>
        </mxCell>
        <mxCell id="hPcDsvAZvbD1BHrRrWnX-48" value="1" style="text;html=1;resizable=0;autosize=1;align=center;verticalAlign=middle;points=[];fillColor=none;strokeColor=none;rounded=0;" vertex="1" parent="1">
          <mxGeometry x="320" y="130" width="30" height="30" as="geometry" />
        </mxCell>
        <mxCell id="hPcDsvAZvbD1BHrRrWnX-49" value="1" style="text;html=1;resizable=0;autosize=1;align=center;verticalAlign=middle;points=[];fillColor=none;strokeColor=none;rounded=0;" vertex="1" parent="1">
          <mxGeometry x="360" y="520" width="30" height="30" as="geometry" />
        </mxCell>
        <mxCell id="hPcDsvAZvbD1BHrRrWnX-50" style="edgeStyle=orthogonalEdgeStyle;rounded=0;orthogonalLoop=1;jettySize=auto;html=1;exitX=0.75;exitY=1;exitDx=0;exitDy=0;fontSize=36;entryX=0.123;entryY=-0.014;entryDx=0;entryDy=0;entryPerimeter=0;" edge="1" parent="1" source="2" target="hPcDsvAZvbD1BHrRrWnX-17">
          <mxGeometry relative="1" as="geometry">
            <mxPoint x="410" y="380" as="targetPoint" />
          </mxGeometry>
        </mxCell>
        <mxCell id="hPcDsvAZvbD1BHrRrWnX-51" value="1" style="text;html=1;resizable=0;autosize=1;align=center;verticalAlign=middle;points=[];fillColor=none;strokeColor=none;rounded=0;" vertex="1" parent="1">
          <mxGeometry x="200" y="360" width="30" height="30" as="geometry" />
        </mxCell>
        <mxCell id="hPcDsvAZvbD1BHrRrWnX-53" style="edgeStyle=orthogonalEdgeStyle;rounded=0;orthogonalLoop=1;jettySize=auto;html=1;entryX=0.378;entryY=0.009;entryDx=0;entryDy=0;fontSize=36;entryPerimeter=0;" edge="1" parent="1" target="hPcDsvAZvbD1BHrRrWnX-25">
          <mxGeometry relative="1" as="geometry">
            <mxPoint x="90" y="350" as="sourcePoint" />
          </mxGeometry>
        </mxCell>
        <mxCell id="hPcDsvAZvbD1BHrRrWnX-54" value="1" style="text;html=1;resizable=0;autosize=1;align=center;verticalAlign=middle;points=[];fillColor=none;strokeColor=none;rounded=0;" vertex="1" parent="1">
          <mxGeometry x="100" y="360" width="30" height="30" as="geometry" />
        </mxCell>
        <mxCell id="hPcDsvAZvbD1BHrRrWnX-55" value="1" style="text;html=1;resizable=0;autosize=1;align=center;verticalAlign=middle;points=[];fillColor=none;strokeColor=none;rounded=0;" vertex="1" parent="1">
          <mxGeometry x="110" y="530" width="30" height="30" as="geometry" />
        </mxCell>
        <mxCell id="hPcDsvAZvbD1BHrRrWnX-63" value="1" style="text;html=1;resizable=0;autosize=1;align=center;verticalAlign=middle;points=[];fillColor=none;strokeColor=none;rounded=0;" vertex="1" parent="1">
          <mxGeometry x="260" y="980" width="30" height="30" as="geometry" />
        </mxCell>
        <mxCell id="hPcDsvAZvbD1BHrRrWnX-64" value="&lt;font style=&quot;font-size: 48px;&quot;&gt;*&lt;/font&gt;" style="text;html=1;resizable=0;autosize=1;align=center;verticalAlign=middle;points=[];fillColor=none;strokeColor=none;rounded=0;" vertex="1" parent="1">
          <mxGeometry x="310" y="970" width="40" height="70" as="geometry" />
        </mxCell>
        <mxCell id="hPcDsvAZvbD1BHrRrWnX-66" value="&lt;font style=&quot;font-size: 48px;&quot;&gt;*&lt;/font&gt;" style="text;html=1;resizable=0;autosize=1;align=center;verticalAlign=middle;points=[];fillColor=none;strokeColor=none;rounded=0;" vertex="1" parent="1">
          <mxGeometry x="180" y="770" width="40" height="70" as="geometry" />
        </mxCell>
        <mxCell id="hPcDsvAZvbD1BHrRrWnX-67" value="&lt;font style=&quot;font-size: 48px;&quot;&gt;*&lt;/font&gt;" style="text;html=1;resizable=0;autosize=1;align=center;verticalAlign=middle;points=[];fillColor=none;strokeColor=none;rounded=0;" vertex="1" parent="1">
          <mxGeometry x="160" y="830" width="40" height="70" as="geometry" />
        </mxCell>
        <mxCell id="hPcDsvAZvbD1BHrRrWnX-71" value="&lt;font style=&quot;font-size: 48px;&quot;&gt;*&lt;/font&gt;" style="text;html=1;resizable=0;autosize=1;align=center;verticalAlign=middle;points=[];fillColor=none;strokeColor=none;rounded=0;" vertex="1" parent="1">
          <mxGeometry x="506" y="760" width="40" height="70" as="geometry" />
        </mxCell>
        <mxCell id="hPcDsvAZvbD1BHrRrWnX-72" value="&lt;font style=&quot;font-size: 48px;&quot;&gt;*&lt;/font&gt;" style="text;html=1;resizable=0;autosize=1;align=center;verticalAlign=middle;points=[];fillColor=none;strokeColor=none;rounded=0;" vertex="1" parent="1">
          <mxGeometry x="220" y="830" width="40" height="70" as="geometry" />
        </mxCell>
      </root>
    </mxGraphModel>
  </diagram>
</mxfile>
